<?xml version="1.0" standalone="no"?>
<!DOCTYPE svg PUBLIC "-//W3C//DTD SVG 20010904//EN"
 "http://www.w3.org/TR/2001/REC-SVG-20010904/DTD/svg10.dtd">
<svg version="1.0" xmlns="http://www.w3.org/2000/svg"
 width="300.000000pt" height="275.000000pt" viewBox="0 0 300.000000 275.000000"
 preserveAspectRatio="xMidYMid meet">
<metadata>
Created by potrace 1.10, written by Peter Selinger 2001-2011
</metadata>
<g transform="translate(0.000000,275.000000) scale(0.100000,-0.100000)"
fill="#000000" stroke="none">
<path d="M1325 2464 c-104 -92 -202 -176 -216 -188 -15 -11 -73 -62 -130 -111
-57 -50 -158 -137 -224 -194 -66 -57 -121 -110 -123 -117 -2 -8 -10 -14 -18
-14 -8 0 -17 -7 -20 -15 -4 -8 -12 -15 -20 -15 -7 0 -17 -6 -21 -14 -4 -8 -33
-33 -63 -56 -30 -24 -62 -50 -71 -59 -8 -9 -40 -36 -69 -61 -76 -64 -160 -145
-160 -155 0 -5 -6 -16 -14 -24 -10 -11 -15 -44 -17 -100 l-2 -83 144 -131
c173 -157 481 -438 831 -759 l259 -236 36 10 c34 9 96 7 175 -7 l37 -7 620
562 621 562 0 74 c0 70 -2 76 -32 108 -18 19 -251 229 -518 467 -267 238 -558
500 -647 581 -90 81 -164 148 -165 148 -2 0 -88 -75 -193 -166z m224 82 c22
-23 23 -32 19 -119 -3 -83 -2 -96 14 -106 10 -6 18 -18 18 -27 0 -13 -8 -11
-37 11 l-38 26 38 -34 c20 -19 37 -39 37 -46 0 -6 5 -11 10 -11 13 0 13 -57
-1 -65 -6 -4 -25 9 -42 29 -46 51 -99 45 -119 -15 -3 -8 -7 -9 -11 -3 -7 12
36 70 63 84 15 8 24 5 44 -15 15 -14 26 -32 26 -40 0 -8 7 -15 15 -15 8 0 15
7 15 15 0 8 -7 15 -15 15 -8 0 -15 6 -15 13 0 7 -12 25 -28 40 l-27 26 -33
-25 c-17 -14 -32 -32 -32 -40 0 -8 -7 -14 -16 -14 -13 0 -15 -7 -10 -35 4 -20
3 -35 -2 -35 -21 0 -30 66 -11 72 6 2 11 21 11 41 0 25 6 42 17 49 14 9 16 24
13 105 -4 87 -3 96 19 119 12 13 30 24 39 24 9 0 27 -11 39 -24z m116 -87 c22
-20 89 -81 150 -135 60 -55 139 -126 176 -159 36 -33 97 -88 135 -121 38 -34
83 -75 100 -90 29 -28 131 -118 167 -149 9 -8 20 -16 24 -17 5 -2 7 -6 6 -10
-1 -3 16 -21 38 -40 22 -18 53 -44 68 -58 168 -155 214 -195 222 -198 19 -7 8
-21 -18 -24 -19 -2 -32 -12 -42 -32 -12 -25 -11 -31 6 -55 23 -30 64 -39 86
-17 22 22 27 10 27 -63 l0 -65 -58 -56 c-31 -30 -136 -128 -233 -217 -176
-162 -177 -163 -204 -149 -43 22 -115 -13 -115 -56 0 -19 1 -19 26 1 31 25 74
28 74 6 0 -8 -6 -15 -13 -15 -7 0 -26 -14 -42 -30 -19 -20 -31 -26 -36 -18 -9
15 -179 -139 -179 -162 0 -10 -12 -25 -26 -35 -14 -9 -33 -24 -43 -33 -9 -9
-66 -62 -127 -117 -224 -204 -213 -196 -264 -170 -22 11 -48 14 -105 9 l-76
-5 -112 99 c-62 55 -139 126 -172 157 -33 32 -90 82 -127 111 -37 30 -70 59
-73 64 -4 6 -29 28 -56 49 -41 33 -46 41 -34 51 12 10 22 7 50 -14 62 -48 37
-12 -43 60 -87 80 -109 94 -147 94 -21 0 -75 44 -241 196 -117 107 -216 200
-220 205 -10 17 7 209 21 222 16 16 65 59 155 137 41 36 77 68 80 71 53 63 62
70 78 64 14 -5 12 -11 -18 -36 -67 -59 -120 -110 -120 -115 0 -7 45 31 118 97
45 42 51 52 42 68 -8 16 -6 21 10 26 11 3 28 17 38 30 14 17 28 24 48 22 25
-2 29 1 27 23 -1 19 8 32 42 55 36 25 109 88 302 260 6 5 33 28 59 50 26 22
109 93 183 159 150 133 154 133 149 24 -2 -50 -6 -62 -18 -59 -33 10 -71 3
-85 -15 -17 -22 -19 -60 -5 -69 6 -3 10 -17 10 -31 0 -13 5 -24 10 -24 6 0 10
14 10 30 0 17 -4 30 -9 30 -15 0 -22 32 -10 46 17 20 57 17 68 -5 8 -14 7 -22
-4 -31 -13 -11 -15 -38 -13 -153 2 -82 7 -142 13 -144 6 -2 9 23 7 67 l-4 69
51 51 c27 27 55 50 61 50 6 0 34 -21 61 -47 49 -48 49 -48 49 -112 0 -47 -5
-70 -17 -85 -18 -20 -18 -20 9 0 l27 19 1 133 c0 83 -4 139 -12 151 -17 28 -3
53 28 49 37 -4 55 -35 32 -52 -23 -17 -24 -66 -2 -66 8 0 12 -5 9 -10 -4 -6
-11 -8 -16 -5 -5 4 -9 -37 -9 -99 0 -97 -2 -106 -22 -121 -13 -8 -23 -20 -23
-27 0 -6 -9 -12 -20 -14 -25 -4 -55 -40 -55 -65 0 -23 18 -25 26 -4 4 8 10 12
15 9 5 -3 13 5 18 18 5 14 29 35 54 48 42 22 46 28 52 72 4 26 4 52 0 58 -3 5
-1 10 4 10 6 0 11 -15 12 -32 0 -18 5 -42 10 -53 6 -14 7 -2 3 35 -5 49 -2 58
20 82 14 15 26 36 26 48 0 11 7 20 15 20 8 0 15 7 15 15 0 8 -7 15 -15 15 -21
0 -31 30 -14 40 7 5 20 5 29 0 22 -12 25 -76 5 -84 -8 -3 -12 -11 -9 -19 3 -8
-2 -20 -11 -27 -19 -16 -19 -34 0 -50 9 -7 15 -29 15 -51 0 -22 3 -39 6 -39
20 0 44 24 44 45 0 18 5 25 19 25 22 0 46 58 36 89 -7 22 -45 35 -59 21 -18
-18 -21 -11 -21 41 0 38 -5 55 -17 63 -30 19 -53 -5 -53 -54 0 -32 -5 -46 -21
-56 -18 -13 -22 -12 -31 8 -6 13 -16 34 -22 48 -10 20 -9 33 3 61 13 32 13 38
-1 59 -13 18 -22 21 -53 17 -21 -2 -42 -2 -47 2 -6 3 -11 41 -12 83 -2 72 -1
77 16 71 10 -4 36 -23 58 -44z m35 -374 c0 -57 -4 -95 -10 -95 -6 0 -10 38
-10 95 0 57 4 95 10 95 6 0 10 -38 10 -95z m204 59 c21 -8 21 -40 0 -48 -8 -3
-24 -1 -35 4 -41 22 -10 61 35 44z m-49 -74 l7 -35 -21 19 c-21 19 -27 46 -14
60 10 10 20 -5 28 -44z m929 -636 c9 -3 16 -17 16 -30 0 -38 -71 -48 -93 -12
-21 33 29 60 77 42z m-2593 -144 c-8 -21 -10 -14 -10 37 -1 82 13 117 17 43 2
-31 -2 -67 -7 -80z m2658 103 c15 -29 7 -122 -12 -141 -16 -15 -17 -11 -17 71
0 84 9 106 29 70z"/>
<path d="M1179 2258 c-13 -9 -14 -20 -7 -66 5 -30 6 -57 4 -60 -3 -3 2 -10 11
-17 14 -11 15 -16 4 -44 -18 -43 -35 -40 -27 5 7 32 5 34 -11 26 -22 -12 -53
2 -53 23 0 15 35 30 50 20 5 -3 10 -1 10 5 0 17 -26 23 -49 10 -18 -9 -21 -19
-19 -60 3 -47 5 -50 31 -50 22 0 27 -4 27 -25 0 -21 24 -45 44 -45 3 0 6 17 6
39 0 22 6 44 15 51 19 16 19 34 0 50 -9 7 -14 19 -11 27 3 8 -1 16 -9 19 -20
8 -17 73 4 83 23 12 41 3 41 -20 0 -12 -7 -19 -20 -19 -11 0 -20 -7 -20 -15 0
-8 7 -15 15 -15 8 0 15 -7 15 -17 0 -9 12 -32 26 -50 23 -31 26 -41 21 -86 -4
-35 -3 -45 3 -32 5 11 9 38 9 59 1 52 14 38 14 -14 0 -22 -3 -43 -6 -47 -4 -3
-7 -13 -6 -22 0 -12 3 -11 9 4 7 15 9 16 9 4 1 -9 15 -22 31 -29 17 -7 42 -27
57 -44 14 -17 29 -30 32 -30 13 3 30 -35 34 -77 2 -28 4 -17 5 31 l1 75 -60
43 -59 44 0 102 c0 87 -2 103 -16 103 -9 0 -23 -15 -32 -34 -9 -18 -18 -33
-22 -33 -3 0 -14 15 -24 34 -13 25 -15 39 -8 53 21 38 -29 68 -69 41z m161
-173 c0 -57 -4 -95 -10 -95 -6 0 -10 38 -10 95 0 57 4 95 10 95 6 0 10 -38 10
-95z"/>
<path d="M1495 2180 c-3 -5 2 -10 11 -10 10 0 29 -10 43 -22 21 -19 20 -17 -3
10 -31 34 -41 38 -51 22z"/>
<path d="M1481 2129 c-22 -18 -24 -27 -22 -77 3 -63 16 -89 36 -72 7 6 23 9
36 8 23 -3 24 1 29 59 5 59 3 64 -22 83 -32 24 -27 24 -57 -1z m51 -34 c9 -21
9 -29 -5 -42 -14 -14 -18 -14 -33 -3 -15 13 -14 16 6 32 17 14 19 18 6 18 -9
0 -16 5 -16 10 0 20 31 9 42 -15z m9 -88 c-8 -8 -11 -7 -11 4 0 9 3 19 7 23 4
4 9 2 11 -4 3 -7 -1 -17 -7 -23z"/>
<path d="M1581 2035 c-1 -40 -5 -53 -23 -64 -59 -37 -115 -12 -121 52 l-4 42
-1 -42 c-2 -37 2 -44 38 -73 l40 -31 39 32 c48 38 51 44 41 94 l-8 40 -1 -50z"/>
<path d="M1054 2015 c-9 -21 5 -67 17 -60 5 4 7 15 4 26 -4 11 -2 19 4 19 6 0
11 -11 11 -24 0 -28 16 -43 23 -24 4 8 6 7 6 -4 1 -9 9 -19 20 -23 28 -9 56
-44 58 -74 7 -83 15 -101 59 -132 40 -27 63 -27 30 0 -8 7 -13 19 -11 29 1 9
0 11 -2 4 -6 -18 -27 -9 -32 14 -1 10 -10 27 -18 36 -8 9 -13 23 -11 31 2 10
19 0 57 -34 l54 -48 1 -93 1 -93 39 -13 c21 -7 55 -28 74 -47 20 -19 38 -32
41 -29 3 3 -6 16 -21 28 -16 12 -28 26 -28 32 0 6 -22 16 -50 23 -48 12 -50
14 -50 47 0 42 16 45 25 4 4 -17 10 -28 14 -25 10 6 2 53 -10 61 -5 3 -9 15
-10 27 -1 21 -2 20 -9 -3 -6 -16 -7 -4 -3 35 5 58 4 61 -21 73 -14 6 -26 16
-26 22 0 6 -22 33 -50 61 -27 27 -50 56 -50 64 0 7 -9 17 -20 20 -29 9 -80 54
-80 71 0 19 -29 18 -36 -1z"/>
<path d="M1922 2002 c-6 -16 -30 -38 -52 -51 -22 -12 -40 -26 -40 -30 0 -4
-22 -31 -50 -59 -27 -28 -50 -59 -50 -68 0 -12 10 -7 36 20 19 20 40 34 45 31
9 -6 -29 -87 -44 -94 -14 -6 -47 -44 -42 -49 3 -3 22 7 44 22 40 28 47 42 56
121 5 42 39 80 82 91 14 4 23 15 25 32 2 14 10 27 18 30 12 3 12 2 3 -8 -6 -7
-9 -19 -6 -27 8 -21 23 4 23 40 0 37 -31 36 -48 -1z"/>
<path d="M1222 1980 c0 -19 2 -27 5 -17 2 9 2 25 0 35 -3 9 -5 1 -5 -18z"/>
<path d="M1130 1991 c0 -6 18 -20 40 -31 22 -11 40 -16 40 -11 0 5 -11 12 -24
15 -14 3 -32 13 -40 22 -9 8 -16 11 -16 5z"/>
<path d="M1850 1970 c-19 -11 -31 -19 -27 -20 11 0 67 29 67 35 0 7 -1 7 -40
-15z"/>
<path d="M1275 1947 c3 -7 24 -24 45 -36 24 -13 42 -32 46 -47 4 -13 15 -29
25 -35 12 -6 19 -21 19 -40 0 -18 4 -28 10 -24 18 11 10 49 -15 75 -14 14 -36
36 -49 50 -37 38 -87 73 -81 57z"/>
<path d="M1977 1938 c-4 -16 -26 -41 -53 -60 l-47 -33 6 -111 c4 -80 3 -115
-6 -124 -10 -12 -9 -12 6 -1 14 11 17 29 17 96 0 91 8 105 79 134 16 7 31 21
34 32 3 13 14 19 31 19 22 0 26 5 26 28 0 21 -5 28 -22 29 -11 1 -29 -2 -39
-7 -13 -8 -18 -6 -21 8 -3 12 -6 10 -11 -10z m59 -15 c-2 -10 -15 -24 -31 -32
-19 -9 -24 -16 -15 -21 8 -5 -8 -18 -44 -38 -36 -19 -56 -26 -56 -17 0 7 8 19
17 26 14 12 16 12 9 -1 -4 -8 1 -4 12 9 12 15 24 21 32 16 9 -5 11 -4 6 3 -4
7 6 20 26 32 18 11 29 20 23 20 -5 0 -3 5 5 10 19 13 19 13 16 -7z"/>
<path d="M950 1920 c0 -29 7 -34 43 -31 11 2 17 -5 17 -16 0 -13 18 -28 56
-46 30 -15 52 -32 49 -38 -4 -5 -2 -15 3 -22 6 -7 12 -23 14 -37 4 -22 5 -23
13 -7 4 10 3 28 -3 40 -18 38 -21 56 -12 62 18 11 10 25 -28 50 -22 14 -45 37
-52 51 -10 17 -16 21 -21 12 -7 -10 -11 -10 -21 0 -6 6 -22 12 -35 12 -19 0
-23 -5 -23 -30z m91 -20 c67 -61 77 -69 83 -64 4 2 2 -1 -2 -6 -6 -7 -25 -4
-57 10 -26 11 -45 23 -42 26 3 3 15 1 26 -6 39 -21 21 -1 -22 25 -24 14 -44
32 -44 40 0 23 11 18 58 -25z"/>
<path d="M1724 1935 c-22 -17 -38 -20 -29 -5 17 28 -47 -18 -80 -57 -22 -26
-43 -42 -51 -39 -11 4 -14 -6 -12 -47 l1 -52 7 45 c6 42 6 43 12 15 l5 -30 2
30 c0 19 12 41 29 57 15 15 35 36 45 48 18 21 43 28 31 9 -4 -8 -1 -8 12 -1
25 14 60 41 53 42 -3 0 -14 -7 -25 -15z"/>
<path d="M1220 1922 c0 -5 11 -17 25 -26 14 -9 23 -21 20 -26 -3 -5 0 -12 6
-16 8 -5 9 -3 4 6 -5 8 -3 11 5 8 8 -2 14 -15 15 -28 1 -12 10 -29 21 -36 10
-7 24 -18 31 -24 18 -15 22 -12 16 10 -3 11 -1 20 5 20 5 0 13 -26 16 -57 13
-113 16 -121 51 -142 18 -11 35 -29 37 -41 3 -23 21 -29 26 -8 2 9 0 8 -7 -2
-9 -12 -11 -10 -11 12 0 19 -9 32 -34 47 -37 23 -46 50 -46 132 0 48 -1 50
-61 97 -80 62 -119 86 -119 74z m120 -92 c14 -11 21 -20 15 -20 -5 0 -21 9
-35 20 -14 11 -20 20 -15 20 6 0 21 -9 35 -20z"/>
<path d="M1726 1880 c-38 -27 -77 -57 -87 -66 -20 -18 -26 -64 -9 -64 6 0 10
14 10 30 0 17 5 30 10 30 6 0 10 -7 10 -16 0 -14 6 -12 33 9 17 13 32 32 32
41 0 9 17 27 38 41 20 14 37 30 37 35 0 13 4 15 -74 -40z m-26 -50 c-14 -11
-29 -20 -35 -20 -5 0 1 9 15 20 14 11 30 20 35 20 6 0 -1 -9 -15 -20z"/>
<path d="M1527 1913 c-4 -3 -7 -48 -7 -99 0 -85 2 -95 25 -120 14 -15 25 -30
25 -35 0 -4 -11 -16 -25 -27 -20 -16 -25 -28 -24 -58 l2 -39 6 39 c3 22 13 42
21 44 13 5 13 3 0 -13 -13 -16 -10 -15 26 3 44 22 54 43 53 102 -1 30 -2 28
-10 -15 -4 -28 -16 -55 -25 -62 -23 -16 -42 -17 -26 -1 19 19 14 42 -14 69
-24 23 -25 28 -22 121 2 54 3 98 2 98 0 0 -4 -3 -7 -7z"/>
<path d="M781 1896 c-8 -10 -8 -21 -1 -40 5 -15 7 -38 4 -51 -6 -26 20 -110
42 -134 11 -12 10 -20 -7 -47 -15 -25 -18 -42 -13 -73 4 -23 10 -41 14 -41 15
0 95 -73 95 -86 0 -7 4 -16 8 -20 4 -4 7 2 7 14 0 20 26 42 49 42 6 0 11 -7
11 -16 0 -11 -6 -14 -20 -9 -21 7 -25 -1 -11 -24 5 -7 14 -11 20 -7 6 4 16 -8
25 -27 8 -19 19 -38 25 -41 6 -4 11 -19 11 -33 0 -28 29 -83 44 -83 6 0 5 5
-2 12 -19 19 -15 41 6 33 12 -4 11 -1 -5 15 -13 11 -23 30 -23 41 0 20 1 20
30 2 21 -12 30 -25 30 -44 0 -33 30 -129 41 -129 4 0 5 10 2 23 -5 21 -5 21
10 2 8 -10 13 -25 10 -31 -2 -7 1 -15 8 -20 9 -5 10 -2 6 9 -3 10 -2 17 3 17
16 0 12 -32 -7 -52 -9 -10 -12 -18 -7 -18 36 0 49 84 15 95 -11 3 -22 13 -25
21 -3 8 -11 12 -16 9 -6 -4 -9 -3 -8 2 2 4 -3 27 -11 50 -11 32 -11 51 -3 84
6 24 7 48 2 58 -5 9 -11 25 -15 35 -3 10 -8 17 -11 14 -2 -3 0 -17 6 -32 5
-15 10 -37 9 -49 -1 -31 -30 61 -30 96 0 21 -7 30 -25 37 -38 15 -107 12 -131
-5 -27 -19 -42 -13 -73 30 -14 18 -33 36 -42 38 -24 7 -23 28 1 34 27 7 38 93
15 110 -23 17 -44 61 -43 92 0 23 1 24 9 6 8 -19 9 -18 9 4 1 13 -6 29 -16 36
-23 17 -9 45 23 45 26 0 26 -1 20 -51 -5 -33 -3 -56 5 -65 21 -25 32 -15 26
25 -6 48 3 64 34 59 32 -4 39 -44 10 -53 -19 -6 -31 -45 -13 -45 11 0 42 59
42 80 0 23 -24 43 -55 43 -13 0 -30 6 -36 13 -15 18 -63 18 -78 0z m281 -423
c21 -24 48 -90 48 -117 0 -15 -3 -17 -9 -8 -4 8 -12 12 -16 10 -5 -1 -13 13
-18 32 -10 39 -33 70 -54 70 -14 0 -17 12 -6 23 12 13 40 7 55 -10z"/>
<path d="M1492 1812 c-2 -102 -2 -103 -24 -98 -13 3 -17 3 -11 0 10 -4 9 -11
-2 -28 -9 -13 -13 -29 -10 -37 8 -18 55 -53 55 -40 0 6 -9 15 -20 21 -26 14
-25 38 0 65 19 20 20 33 17 121 l-3 99 -2 -103z"/>
<path d="M2160 1895 c-7 -8 -24 -15 -39 -15 -27 0 -51 -16 -51 -34 0 -6 5 -5
12 2 16 16 58 15 59 0 1 -7 1 -30 -1 -51 -2 -36 -1 -38 19 -27 19 10 20 17 15
65 -7 55 -7 55 20 55 32 0 46 -28 23 -45 -10 -7 -17 -26 -17 -42 0 -22 -7 -36
-26 -48 -14 -9 -24 -19 -21 -22 11 -10 57 42 58 66 2 26 2 26 6 2 5 -27 -12
-68 -38 -91 -25 -21 -15 -106 12 -113 24 -6 25 -27 2 -34 -10 -2 -29 -20 -43
-38 -32 -44 -45 -49 -76 -29 -19 13 -38 15 -81 11 -54 -6 -77 -20 -69 -43 2
-6 -4 -35 -15 -65 -10 -30 -18 -45 -18 -34 0 11 6 37 13 58 12 32 12 36 0 26
-8 -6 -14 -21 -15 -33 0 -19 -1 -19 -10 4 -7 17 -7 26 1 28 5 2 15 13 21 25 9
18 9 20 -1 10 -10 -9 -22 -7 -52 9 -65 34 -125 35 -207 3 -40 -15 -78 -34 -86
-42 -18 -17 -22 -223 -5 -223 6 0 10 3 11 8 0 4 2 17 3 29 3 29 16 42 16 17 0
-10 9 -30 20 -44 29 -37 26 -54 -7 -45 -37 10 -130 10 -167 0 -24 -7 -28 -5
-24 7 4 8 -2 22 -11 30 -16 14 -19 13 -31 -6 -12 -19 -11 -20 2 -8 14 11 18 6
33 -35 30 -85 35 -95 48 -90 6 2 12 17 12 32 0 25 5 30 35 36 59 12 94 -25 53
-58 -16 -12 -15 -13 12 -7 32 7 55 29 55 52 0 7 5 23 12 35 7 12 13 28 14 35
1 7 17 27 34 43 25 25 34 28 46 18 12 -10 13 -9 8 6 -5 13 -4 16 4 11 7 -4 12
-2 12 3 0 22 -40 2 -85 -40 l-31 -29 -22 45 c-12 26 -27 43 -32 40 -6 -3 -10
-3 -11 2 0 4 -2 19 -5 33 -3 23 -2 23 10 8 7 -10 16 -15 19 -11 4 3 41 5 83 4
68 -2 83 2 137 30 62 32 76 30 77 -12 0 -9 3 -38 7 -64 5 -42 4 -48 -10 -42
-11 4 -14 2 -11 -8 3 -7 -1 -27 -10 -43 -8 -16 -12 -33 -8 -37 4 -5 2 -5 -5
-2 -6 4 -18 4 -27 1 -30 -11 -15 -94 16 -94 5 0 1 11 -8 26 -13 19 -14 28 -5
37 8 8 11 6 11 -8 0 -10 14 -34 32 -52 32 -33 45 -63 26 -63 -6 0 -4 -8 3 -17
13 -16 12 -17 -3 -5 -9 7 -15 22 -13 32 4 21 -8 33 -39 37 -16 3 -17 1 -5 -13
13 -16 12 -16 -9 -5 -14 7 -21 18 -18 27 3 8 1 14 -4 14 -6 0 -10 -4 -10 -10
0 -5 -13 -22 -30 -37 l-30 -26 2 -116 2 -116 3 117 c3 111 5 117 28 132 23 15
29 13 26 -7 -1 -4 8 -3 18 3 25 13 36 -3 16 -23 -8 -9 -15 -23 -15 -31 0 -18
20 -57 35 -68 13 -10 35 11 35 33 0 16 -5 18 -27 13 -25 -7 -27 -6 -14 10 12
14 12 16 -3 10 -9 -3 -16 -1 -16 5 0 6 7 11 15 11 8 0 15 5 15 11 0 5 4 8 10
4 5 -3 7 -13 4 -23 -4 -10 -2 -13 3 -7 4 6 15 10 23 10 10 0 15 9 14 28 -1 32
7 34 29 9 13 -14 17 -37 17 -88 0 -69 0 -70 -35 -88 -38 -21 -71 -53 -63 -62
8 -7 106 64 117 85 10 19 3 131 -9 146 -5 6 -5 17 0 25 16 25 11 37 -12 36
-31 -1 -30 27 2 34 16 4 35 25 57 63 19 31 38 57 43 57 6 0 10 4 10 9 0 5 -11
8 -25 7 -14 0 -25 -7 -25 -14 0 -23 -29 -69 -47 -76 -12 -5 -25 1 -40 19 l-22
25 -9 -32 c-6 -20 -15 -32 -23 -30 -9 2 -6 -5 6 -19 l20 -23 -25 16 c-14 8
-27 24 -29 34 -2 11 0 16 4 12 11 -11 35 18 41 51 4 16 11 28 18 27 6 -2 8 -1
4 1 -17 9 -8 63 12 75 24 15 28 50 5 42 -21 -8 -19 14 5 68 23 52 42 71 66 66
21 -4 31 -28 11 -28 -32 0 -51 -39 -52 -106 0 -38 -5 -68 -12 -72 -8 -5 -8
-12 3 -26 13 -18 14 -18 24 8 5 15 10 35 10 44 0 10 11 29 25 44 14 15 25 35
26 45 0 16 1 16 8 -2 5 -11 6 -24 3 -30 -3 -5 -1 -7 3 -2 5 4 10 23 12 42 3
28 0 33 -12 29 -10 -4 -15 0 -15 10 0 20 19 20 45 0 17 -12 18 -17 6 -35 -10
-17 -10 -20 0 -17 8 3 16 14 19 25 5 21 71 83 88 83 11 0 32 60 32 91 0 9 -9
26 -19 38 -19 22 -19 22 11 78 23 43 29 65 24 91 -3 19 -1 43 5 53 23 45 -48
83 -81 44z m-325 -436 c5 -6 4 -14 -3 -21 -10 -10 -18 -6 -38 15 l-26 28 29
-7 c15 -4 32 -11 38 -15z m-191 -30 c-3 -5 -9 -7 -14 -4 -4 3 -10 -5 -13 -16
-3 -12 -10 -18 -16 -14 -18 11 -12 31 12 42 24 11 41 7 31 -8z m116 1 c15 -24
12 -29 -24 -35 -40 -8 -75 8 -73 33 1 14 10 17 44 17 28 0 47 -5 53 -15z m153
-379 c-1 -2 -10 2 -18 9 -11 9 -13 16 -5 24 5 5 11 21 12 36 0 14 4 5 7 -20 4
-25 5 -47 4 -49z m-47 -16 c3 -17 -12 -20 -21 -5 -3 6 -1 10 5 10 6 0 8 6 4
13 -4 6 -3 8 1 4 5 -4 10 -14 11 -22z"/>
<path d="M1390 1875 c0 -7 11 -20 24 -29 16 -10 26 -28 29 -48 l4 -33 1 33 c2
26 -5 41 -28 62 -17 15 -30 22 -30 15z"/>
<path d="M1859 1888 c-7 -26 -7 -83 0 -118 9 -41 9 -38 9 38 -1 45 -2 82 -4
82 -2 0 -4 -1 -5 -2z"/>
<path d="M2050 1865 c-7 -8 -16 -15 -21 -15 -5 0 -34 -16 -65 -36 l-56 -36 4
-85 c4 -84 4 -84 -23 -98 -23 -12 -28 -13 -32 0 -3 7 1 19 9 25 8 7 14 19 14
26 0 24 -26 4 -43 -34 -15 -34 -16 -38 -1 -49 13 -9 23 -6 55 15 l39 27 -2 81
c-3 84 -2 87 44 117 31 19 38 21 38 8 0 -5 -13 -14 -30 -21 -16 -7 -30 -17
-30 -22 0 -6 12 -3 26 6 14 10 30 16 36 14 6 -2 -4 -13 -23 -25 l-35 -20 3
-69 c6 -102 11 -110 12 -18 1 78 2 81 29 94 15 8 29 14 32 14 3 1 12 6 20 11
21 13 -16 -45 -42 -65 -13 -11 -21 -35 -26 -79 -7 -61 -9 -65 -39 -75 -40 -13
-67 -39 -60 -58 3 -8 8 -4 15 13 8 19 20 28 46 33 43 8 50 19 47 69 -1 27 4
45 18 60 11 12 31 36 45 52 l26 30 -6 -45 c-9 -74 -13 -88 -29 -94 -11 -4 -15
2 -15 20 0 39 -25 24 -27 -17 -2 -30 -1 -31 7 -9 l8 25 1 -25 c1 -36 -30 -71
-69 -79 -18 -3 -35 -12 -38 -20 -3 -10 0 -11 16 -2 11 6 34 11 50 11 23 0 31
5 36 23 3 12 23 36 45 52 39 30 39 30 34 85 -8 82 -24 116 -55 111 -12 -2 -9
17 3 24 11 8 32 56 26 62 -2 2 -10 -3 -17 -12z"/>
<path d="M968 1843 c2 -13 8 -26 13 -29 11 -6 12 -24 2 -23 -21 3 -33 -2 -33
-15 0 -8 -4 -16 -9 -18 -5 -1 -11 -32 -12 -67 -3 -62 -2 -63 39 -102 23 -21
42 -45 42 -53 0 -10 13 -16 42 -18 36 -2 45 -8 56 -31 8 -16 20 -31 28 -34 8
-3 12 -13 9 -22 -3 -10 4 -20 18 -27 116 -59 108 -57 194 -51 46 2 85 1 88 -3
3 -4 -2 -24 -10 -44 -19 -45 -19 -49 0 -52 8 -1 13 2 9 7 -3 5 -1 9 4 9 5 0
13 -10 18 -22 5 -15 9 12 11 82 4 104 4 105 -23 127 -41 32 -130 63 -182 63
-32 0 -60 -8 -87 -25 -22 -13 -43 -25 -47 -25 -4 0 -14 14 -23 30 -9 17 -24
30 -34 30 -51 0 -87 49 -76 101 4 18 3 29 -4 29 -6 0 -11 -9 -11 -19 0 -27
-17 -35 -28 -14 -14 27 -23 113 -12 113 5 0 19 -15 31 -32 13 -18 27 -34 31
-36 4 -2 8 -24 8 -48 0 -51 25 -84 65 -84 17 0 29 -9 40 -30 18 -35 29 -40 20
-9 -5 14 -3 19 4 15 6 -4 13 4 17 19 4 17 11 24 20 21 14 -6 19 15 7 28 -4 3
-8 17 -10 29 -2 12 -12 29 -23 39 -11 9 -20 22 -21 30 0 7 -6 -3 -14 -22 -11
-30 -11 -37 3 -47 9 -7 21 -13 26 -13 6 0 3 7 -6 14 -10 7 -18 19 -18 26 0 7
8 2 19 -11 28 -35 16 -53 -20 -32 -17 10 -27 23 -24 31 11 29 18 127 8 117 -6
-5 -13 -38 -17 -72 -6 -62 -6 -62 29 -89 19 -14 35 -34 35 -42 0 -12 -4 -11
-16 6 -8 12 -20 22 -26 22 -6 0 -20 7 -30 17 -10 9 -18 11 -18 6 0 -6 16 -20
35 -32 19 -11 35 -25 35 -31 0 -6 -12 -2 -26 9 -15 12 -35 21 -45 21 -26 0
-39 30 -39 89 0 30 -5 53 -13 58 -7 4 -23 22 -35 40 -21 30 -21 31 -2 26 11
-3 31 -15 44 -28 14 -13 27 -20 30 -17 3 3 6 -7 6 -22 0 -17 -4 -25 -11 -20
-12 7 -8 -90 5 -103 4 -4 6 13 5 39 -2 26 0 50 4 54 4 4 7 22 7 41 0 28 -5 36
-35 50 -19 9 -35 20 -35 25 0 5 18 -1 39 -12 34 -17 40 -25 44 -57 l4 -38 1
37 c2 34 -2 40 -39 64 -22 14 -38 28 -35 31 3 3 24 -6 46 -21 25 -16 40 -21
40 -14 0 7 -31 29 -68 49 -67 35 -69 35 -64 12z m282 -369 c0 -10 -44 -43 -57
-44 -21 0 -14 26 10 38 25 12 47 15 47 6z m105 -45 c16 -16 -25 -41 -55 -34
-14 3 -31 6 -37 7 -18 2 -16 13 4 33 17 18 68 14 88 -6z m72 -5 c11 -29 -12
-35 -37 -9 l-23 25 27 0 c15 0 29 -7 33 -16z"/>
<path d="M1151 1834 c1 -21 5 -50 10 -64 6 -18 7 -8 5 33 -5 66 -17 91 -15 31z"/>
<path d="M1618 1836 c-28 -22 -37 -59 -18 -71 6 -4 10 6 10 23 0 19 8 35 23
45 12 8 20 17 17 20 -3 3 -17 -5 -32 -17z"/>
<path d="M895 1831 c-6 -11 9 -23 19 -14 9 9 7 23 -3 23 -6 0 -12 -4 -16 -9z"/>
<path d="M2102 1831 c2 -7 7 -12 11 -12 12 1 9 15 -3 20 -7 2 -11 -2 -8 -8z"/>
<path d="M2070 1823 c0 -5 6 -21 13 -36 14 -31 37 -36 37 -7 0 11 -4 20 -9 20
-5 0 -17 7 -25 16 -9 8 -16 12 -16 7z"/>
<path d="M1693 1773 c-8 -3 -13 -25 -13 -56 0 -30 -7 -60 -15 -71 -17 -23 -21
-71 -4 -61 6 4 8 13 5 21 -3 8 2 22 12 32 12 12 16 30 14 61 -2 30 2 49 14 62
17 18 12 23 -13 12z"/>
<path d="M834 1751 c11 -11 23 -21 28 -21 14 0 -1 19 -25 31 -22 12 -22 12 -3
-10z"/>
<path d="M886 1723 c-3 -16 -6 -61 -8 -102 l-3 -74 42 -1 c46 -1 47 6 3 24
-16 7 -30 16 -30 21 0 15 16 10 61 -22 l44 -30 -49 44 -49 44 6 56 c7 57 -7
90 -17 40z"/>
<path d="M2118 1745 c-3 -3 -4 -34 -1 -68 l5 -62 -45 -30 c-25 -16 -44 -32
-42 -33 2 -2 21 8 42 22 40 27 53 32 53 17 0 -5 -15 -15 -32 -22 l-32 -13 34
-7 c19 -4 38 -5 42 -3 8 5 0 149 -9 174 -4 8 -5 18 -5 23 2 8 -2 9 -10 2z"/>
<path d="M1807 1714 c-15 -14 -27 -30 -27 -37 0 -6 14 3 32 20 38 39 34 53 -5
17z"/>
<path d="M1205 1704 c20 -19 25 -28 16 -37 -14 -14 -14 -57 0 -57 8 0 8 -5 -1
-15 -10 -13 -9 -15 8 -15 19 0 20 4 15 58 -3 40 -11 62 -25 75 -32 27 -44 20
-13 -9z"/>
<path d="M1150 1696 c0 -22 23 -36 40 -25 13 8 12 12 -4 24 -25 19 -36 19 -36
1z"/>
<path d="M1815 1679 c-27 -24 -35 -39 -35 -65 0 -19 5 -34 11 -34 7 0 9 10 5
26 -8 32 20 82 36 66 15 -15 38 -3 38 19 0 27 -14 24 -55 -12z"/>
<path d="M1281 1650 c-11 -25 -11 -34 -1 -43 10 -10 12 -7 7 10 -2 12 0 24 5
25 6 2 9 12 7 21 -3 13 -7 10 -18 -13z"/>
<path d="M1733 1630 c0 -30 2 -43 4 -27 2 15 2 39 0 55 -2 15 -4 2 -4 -28z"/>
<path d="M1510 1651 c-33 -6 -34 -7 -11 -15 16 -6 28 -3 39 8 9 9 14 15 12 15
-3 -1 -21 -5 -40 -8z"/>
<path d="M1691 1608 c-1 -35 -3 -37 -51 -49 -27 -7 -50 -16 -50 -19 0 -3 -14
-21 -31 -38 -43 -44 -30 -40 25 7 25 22 59 42 76 46 35 8 43 21 37 62 -3 24
-4 23 -6 -9z"/>
<path d="M1934 1585 c-4 -8 -10 -12 -15 -9 -11 6 -59 -40 -59 -58 0 -7 10 -1
23 14 12 14 32 29 45 33 12 3 22 13 22 21 0 18 -9 18 -16 -1z"/>
<path d="M2076 1532 c-5 -9 20 -32 28 -25 3 4 6 10 6 14 0 10 -28 20 -34 11z"/>
<path d="M910 1521 c0 -18 18 -21 30 -6 10 13 9 15 -9 15 -11 0 -21 -4 -21 -9z"/>
<path d="M2211 1471 c-1 -8 -8 -11 -20 -8 -21 5 -63 -24 -67 -47 -1 -9 2 -14
7 -10 5 3 7 9 4 14 -3 4 8 16 23 25 27 18 27 18 10 -1 -10 -12 -15 -28 -12
-41 5 -16 -5 -29 -42 -57 -26 -20 -56 -36 -66 -36 -26 0 -48 -23 -38 -39 5 -9
10 -10 14 -2 4 6 15 11 25 11 28 0 110 68 117 97 4 15 18 36 32 48 16 13 23
28 19 40 -2 11 -5 14 -6 6z"/>
<path d="M800 1448 c0 -10 10 -23 23 -29 13 -6 28 -25 33 -42 11 -37 85 -97
120 -97 20 0 24 -4 22 -27 -4 -60 48 -160 78 -149 6 2 17 -1 23 -7 8 -8 11 -4
11 17 0 15 4 25 10 21 6 -3 10 -20 10 -37 0 -29 1 -30 22 -16 28 19 38 44 13
34 -13 -5 -16 -2 -11 9 3 9 2 13 -4 10 -6 -4 -13 8 -16 25 -7 33 -24 51 -24
25 0 -20 -40 -35 -61 -24 -18 9 -39 60 -39 93 0 18 2 19 11 6 9 -12 10 -12 5
3 -3 10 -6 24 -6 31 0 6 -12 13 -27 14 -14 1 -48 16 -75 33 -37 24 -48 37 -48
57 0 14 -8 34 -17 45 -18 19 -18 20 15 3 35 -18 45 -14 11 5 -12 6 -35 12 -50
13 -22 2 -29 -2 -29 -16z"/>
<path d="M244 1444 c-18 -15 -18 -15 4 -9 33 9 70 -2 75 -23 3 -11 5 -7 6 9 2
40 -47 53 -85 23z"/>
<path d="M267 1423 c-4 -3 -7 -11 -7 -17 0 -6 5 -4 10 4 7 11 10 11 10 2 0 -7
5 -10 10 -7 6 4 8 11 5 16 -7 11 -19 12 -28 2z"/>
<path d="M881 1404 c0 -14 9 -28 27 -40 23 -15 25 -15 13 -1 -16 20 -1 23 18
5 11 -10 12 -10 7 -1 -4 7 -16 18 -28 24 -15 8 -19 8 -14 0 4 -6 3 -11 -3 -11
-5 0 -12 10 -14 23 -4 21 -4 21 -6 1z"/>
<path d="M954 1385 c11 -8 22 -12 25 -9 6 6 -19 24 -34 24 -5 -1 -1 -7 9 -15z"/>
<path d="M240 1377 c16 -22 71 -20 78 3 4 12 2 13 -9 3 -7 -7 -22 -13 -34 -13
-12 0 -27 6 -35 13 -12 10 -12 9 0 -6z"/>
<path d="M2093 1377 c-10 -16 -13 -41 -5 -32 4 4 7 12 7 18 0 5 6 12 14 15 8
3 11 0 7 -7 -10 -15 -1 -14 12 2 8 10 6 13 -8 14 -11 1 -23 -4 -27 -10z"/>
<path d="M1140 1316 c0 -18 16 -29 30 -21 13 8 1 35 -16 35 -8 0 -14 -6 -14
-14z"/>
<path d="M1192 1294 c-15 -31 -15 -47 -2 -39 15 9 41 -21 34 -40 -4 -10 2 -24
15 -36 31 -30 28 -125 -5 -112 -8 3 -11 9 -8 14 3 5 11 6 17 3 9 -5 8 -3 0 6
-10 11 -16 10 -32 -4 -11 -10 -24 -15 -29 -12 -5 3 -21 -3 -35 -14 -31 -25
-37 -25 -37 -2 0 11 -8 17 -24 17 -24 0 -24 -2 -25 -93 -1 -51 1 -103 5 -115
6 -25 90 -91 104 -82 6 3 7 -1 4 -9 -8 -21 -9 -21 -65 20 -27 20 -49 31 -49
24 0 -6 13 -19 30 -28 16 -9 30 -20 30 -24 0 -5 5 -8 10 -8 29 0 35 -24 32
-134 l-4 -112 62 -59 c34 -33 69 -76 78 -95 13 -27 25 -36 49 -40 17 -3 47
-19 66 -37 48 -43 89 -63 118 -56 13 4 41 24 63 45 22 21 57 43 78 48 28 8 39
18 48 43 6 17 29 48 52 67 94 80 88 68 88 184 0 59 -4 108 -10 111 -16 10 -12
25 5 19 8 -4 15 -1 15 5 0 6 7 11 15 11 16 0 88 60 81 68 -3 2 -28 -12 -57
-32 -48 -35 -52 -36 -66 -19 -8 10 -12 12 -8 6 4 -8 0 -13 -10 -13 -29 0 -11
28 40 62 l50 33 1 60 1 60 -7 -60 c-6 -54 -7 -56 -10 -20 -3 36 -3 37 -7 10
-6 -39 -21 -55 -33 -35 -8 12 -10 10 -10 -7 0 -25 10 -29 28 -11 6 6 14 9 18
6 10 -10 -53 -38 -70 -32 -17 6 -24 39 -28 119 -5 84 -23 57 -24 -35 l-1 -85
7 85 c6 80 6 81 8 25 2 -33 6 -77 11 -97 7 -28 5 -40 -5 -49 -9 -8 -14 -33
-14 -75 0 -57 -2 -64 -20 -64 -11 0 -20 7 -20 15 0 8 5 15 10 15 6 0 10 23 10
50 0 36 4 52 15 56 19 8 19 24 0 24 -11 0 -15 20 -18 98 l-3 97 -2 -122 -2
-122 -36 -27 c-36 -28 -36 -29 -32 -91 3 -55 2 -63 -14 -64 -10 -1 -23 -2 -30
-3 -8 -1 -11 38 -9 139 l2 140 -60 45 c-33 25 -61 47 -61 50 0 15 40 6 57 -12
10 -12 12 -18 4 -13 -9 5 -12 4 -7 -3 4 -6 13 -9 20 -6 7 3 25 -9 40 -26 25
-30 26 -36 28 -168 1 -75 3 -107 5 -70 4 63 6 68 36 87 l32 20 -6 98 c-4 54
-5 107 -3 118 4 15 -2 23 -23 32 -15 7 -46 24 -68 37 -45 29 -75 33 -75 11 0
-21 -33 -35 -82 -35 -40 1 -42 2 -24 15 11 8 16 15 10 15 -5 0 -2 5 6 10 13 8
12 10 -4 10 -10 0 -44 -16 -76 -35 -32 -19 -63 -35 -70 -35 -7 0 -10 -10 -6
-27 3 -16 7 -65 8 -111 1 -46 6 -86 12 -89 6 -4 7 28 4 83 -3 49 -3 79 -1 66
6 -31 23 -17 23 19 0 25 6 33 38 46 93 41 289 9 279 -44 -2 -13 2 -28 9 -34
11 -9 14 -7 14 12 0 19 2 21 10 9 5 -8 10 -50 10 -92 0 -66 -3 -79 -19 -88
-24 -12 -41 -13 -22 -1 17 11 17 119 0 136 -6 5 -9 4 -9 -5 0 -22 -34 15 -50
55 l-14 35 -90 0 c-49 0 -87 -3 -83 -6 3 -3 -3 -21 -14 -40 -22 -40 -25 -56
-6 -29 8 10 19 15 24 12 6 -4 17 1 24 11 13 16 12 16 -6 2 -15 -11 -14 -7 4
13 27 30 51 35 51 12 0 -8 -5 -15 -11 -15 -5 0 -7 5 -3 12 4 6 3 8 -4 4 -6 -3
-9 -18 -6 -31 2 -14 0 -25 -6 -25 -6 0 -8 5 -4 12 4 7 3 8 -5 4 -6 -4 -9 -11
-6 -16 3 -5 -3 -15 -13 -21 -19 -12 -19 -22 -14 -181 4 -140 3 -168 -9 -168
-22 0 -14 327 9 355 17 19 16 19 -8 3 -25 -15 -25 -17 -25 -161 l0 -146 -30 2
-30 3 3 66 c4 64 3 67 -27 89 -34 25 -41 48 -51 174 l-8 90 2 -93 c0 -50 -2
-92 -6 -92 -5 0 -9 42 -10 93 l-2 92 -6 -90 -6 -90 -3 88 c-4 106 -4 103 -15
114 -5 4 -6 3 -3 -4 7 -12 -10 -12 -29 0 -7 4 -17 0 -24 -8 -7 -8 -18 -15 -24
-15 -6 1 3 12 19 26 18 15 23 22 11 18 -14 -5 -17 -4 -12 5 5 7 15 10 23 7 9
-4 11 -2 7 6 -4 7 -3 8 5 4 9 -6 9 -11 1 -21 -7 -8 -7 -16 -2 -19 6 -3 13 1
16 10 6 15 8 15 27 -2 11 -10 31 -19 45 -20 l25 -1 -22 24 c-28 29 -13 30 18
1 28 -26 31 -10 4 21 -13 15 -21 45 -26 101 -5 53 -11 80 -21 84 -8 3 -14 13
-14 23 0 10 -7 26 -14 35 -12 16 -14 16 -24 -8z m52 -247 c21 -17 24 -24 13
-24 -9 0 -27 11 -39 24 -28 30 -12 30 26 0z m-123 -28 c-17 -14 -21 -28 -21
-82 0 -43 5 -68 14 -76 15 -12 46 -5 46 11 0 6 -7 8 -15 4 -12 -4 -15 5 -15
53 0 66 11 77 50 52 22 -15 24 -15 17 2 -4 11 -3 16 3 12 6 -3 10 -39 10 -80
0 -58 -3 -74 -16 -79 -9 -4 -23 -1 -31 5 -7 7 -16 9 -19 7 -3 -3 11 -16 31
-28 22 -14 35 -29 33 -39 -4 -18 -23 -17 -23 1 0 7 -23 28 -52 48 l-51 35 -4
73 c-3 78 5 98 43 98 l21 0 -21 -17z m-4 -116 c-2 -21 -4 -6 -4 32 0 39 2 55
4 38 2 -18 2 -50 0 -70z m461 -10 l31 -28 2 -170 c2 -101 -1 -169 -7 -167 -5
1 -9 75 -9 168 l0 166 -35 29 c-19 16 -30 29 -24 29 5 0 24 -12 42 -27z m-31
-12 c20 -17 22 -28 25 -199 2 -119 0 -181 -7 -179 -6 2 -11 62 -13 145 -1 78
-6 142 -10 142 -4 0 -6 -78 -4 -174 3 -171 3 -174 -18 -181 -12 -4 -26 -3 -32
3 -6 6 -8 77 -6 181 1 94 0 171 -4 171 -4 0 -9 -64 -10 -142 -2 -83 -7 -143
-13 -145 -7 -2 -9 60 -7 179 3 171 5 182 25 199 12 10 29 18 37 18 8 0 25 -8
37 -18z m-304 -79 c8 -9 17 -37 19 -62 2 -25 8 -45 13 -46 35 -3 45 -17 45
-68 0 -60 7 -73 40 -77 19 -3 26 -11 28 -31 2 -19 9 -28 21 -28 13 0 17 -9 18
-35 1 -39 -6 -48 -27 -35 -13 8 -13 13 -1 32 14 22 14 22 -12 5 -42 -27 -75
-19 -46 10 7 7 9 23 5 37 -5 19 -13 26 -31 26 -14 0 -36 13 -54 33 -33 35 -41
66 -15 63 9 0 22 9 30 20 14 20 13 21 -11 17 -25 -5 -25 -4 -25 58 0 44 -5 68
-17 81 -9 10 -12 18 -6 18 5 0 17 -8 26 -18z m-30 -159 l-5 -118 151 -133 151
-133 151 133 150 133 -2 100 c-2 82 0 100 12 100 11 0 15 -21 17 -101 l3 -102
-71 -62 c-57 -51 -70 -68 -70 -93 0 -27 -2 -29 -30 -24 -26 6 -37 -1 -89 -48
-32 -30 -64 -55 -69 -55 -6 0 -47 32 -91 70 -43 39 -82 70 -85 70 -3 0 -6 -7
-6 -16 0 -10 6 -14 15 -10 8 3 15 1 15 -5 0 -6 -10 -9 -22 -7 -18 2 -23 9 -21
30 1 22 -12 39 -68 89 l-69 61 0 99 c0 79 3 101 15 105 8 4 15 12 15 20 0 8 2
14 4 14 2 0 1 -53 -1 -117z m536 -16 c7 -7 15 -6 26 3 13 11 15 9 15 -14 0
-31 -51 -86 -79 -86 -30 0 -45 -25 -33 -57 10 -29 9 -31 -32 -63 -18 -14 -19
-14 -8 7 16 29 15 38 -3 23 -8 -7 -22 -10 -30 -6 -23 9 -18 -22 6 -35 21 -11
21 -11 -7 -28 -16 -10 -35 -25 -43 -34 -7 -10 -19 -17 -26 -17 -8 0 -15 -5
-17 -11 -2 -6 -26 7 -53 27 -28 21 -51 38 -53 39 -2 2 23 53 36 74 1 3 9 -5
18 -17 20 -29 55 -28 84 3 12 13 27 22 31 19 5 -3 9 2 9 10 0 9 5 16 10 16 6
0 18 16 27 35 10 21 24 35 35 35 22 0 38 37 38 89 0 20 6 43 12 49 10 10 14 7
19 -18 4 -18 12 -37 18 -43z m-499 -81 c0 -16 21 -26 56 -26 24 0 43 -24 30
-37 -10 -11 -101 41 -104 60 -2 9 1 17 7 17 6 0 11 -6 11 -14z m538 -3 c-4
-21 -88 -67 -101 -54 -14 14 1 31 28 31 34 0 55 10 55 26 0 8 5 14 11 14 6 0
9 -8 7 -17z"/>
<path d="M1165 970 l20 -23 -23 6 c-19 5 -23 2 -20 -16 2 -14 11 -23 26 -25
21 -3 32 -22 12 -22 -5 0 -10 -9 -10 -20 0 -11 7 -20 15 -20 11 0 15 12 15 53
-1 45 -4 55 -28 71 l-27 20 20 -24z"/>
<path d="M1505 648 c3 -78 8 -144 10 -147 3 -2 5 62 5 142 0 91 -4 147 -10
147 -6 0 -8 -50 -5 -142z"/>
<path d="M1667 374 c-8 -8 1 -24 14 -24 5 0 9 7 9 15 0 15 -12 20 -23 9z"/>
<path d="M1846 1313 c-4 -4 -15 -8 -24 -8 -9 0 -19 -13 -24 -32 -5 -19 -15
-33 -23 -33 -12 0 -15 -15 -15 -71 0 -62 -3 -75 -25 -101 -14 -17 -24 -33 -21
-35 7 -7 55 30 54 42 -6 84 12 175 24 118 3 -17 4 -17 11 0 5 13 1 20 -15 26
l-22 8 22 5 c14 4 20 2 16 -4 -4 -6 -1 -8 7 -6 8 3 13 14 11 24 -3 18 -3 18
12 -1 18 -23 20 -17 6 19 -8 21 -6 26 10 31 11 4 20 11 20 16 0 11 -14 12 -24
2z"/>
<path d="M1290 1295 c0 -9 9 -15 21 -15 18 0 19 2 5 15 -8 8 -17 15 -20 15 -3
0 -6 -7 -6 -15z"/>
<path d="M1683 1197 c-10 -16 -13 -41 -5 -32 4 4 7 12 7 18 0 7 10 11 23 11
13 -1 20 1 17 4 -11 11 -35 10 -42 -1z"/>
<path d="M786 1184 c-9 -8 -16 -13 -16 -10 0 3 -22 -2 -49 -10 -34 -10 -57
-11 -74 -5 -31 12 -52 -3 -61 -41 -6 -26 -4 -28 24 -28 23 0 30 4 30 20 0 25
-17 26 -23 3 -4 -14 -5 -13 -6 4 0 12 4 25 9 28 17 11 40 -15 40 -45 0 -26 -3
-28 -35 -25 -25 3 -35 -1 -35 -11 0 -8 3 -13 8 -13 21 4 42 -2 42 -12 0 -5 -4
-8 -9 -5 -14 9 -4 -63 11 -77 7 -7 36 -22 64 -34 l51 -21 75 24 c81 26 95 37
101 75 2 14 12 25 23 28 31 5 44 22 44 56 0 45 -34 87 -65 79 -13 -3 -40 3
-66 15 -51 25 -63 26 -83 5z m54 -26 c0 -16 5 -19 24 -16 14 3 31 1 38 -3 10
-7 9 -9 -4 -9 -12 0 -18 -8 -18 -25 0 -34 -20 -32 -21 3 0 15 -3 21 -6 15 -5
-14 -69 -18 -77 -4 -10 16 -61 7 -64 -11 -2 -12 3 -18 15 -18 14 0 15 2 4 9
-10 6 -10 10 -1 16 6 4 17 2 23 -4 8 -8 7 -15 -5 -27 -22 -22 -61 -2 -56 29 2
18 11 23 47 25 24 2 49 -2 54 -7 16 -16 37 -13 37 4 0 8 -6 15 -14 15 -21 0
-31 21 -16 30 20 12 40 1 40 -22z m127 -20 c5 -7 10 -30 12 -50 1 -35 0 -38
-26 -38 -42 0 -58 13 -37 31 13 11 18 11 21 2 6 -17 23 -17 23 0 0 7 -9 18
-21 25 -16 11 -18 16 -9 28 15 17 25 18 37 2z m-132 -93 c22 -14 48 -25 58
-25 11 0 17 -8 17 -25 0 -22 -9 -27 -80 -49 l-80 -26 -55 27 c-42 21 -55 32
-55 49 0 18 7 23 43 28 23 4 56 15 72 26 38 23 33 24 80 -5z"/>
<path d="M777 1044 c-4 -4 2 -13 13 -21 26 -18 25 -38 -2 -57 -21 -15 -24 -14
-41 3 -15 15 -17 23 -8 38 10 19 9 20 -34 5 -25 -8 -45 -18 -45 -21 0 -4 22
-18 49 -30 l49 -23 66 22 c36 12 66 26 66 30 0 5 -21 19 -47 32 -27 12 -51 23
-54 25 -3 2 -8 0 -12 -3z"/>
<path d="M750 993 c0 -15 2 -16 10 -3 7 11 10 11 10 2 0 -7 5 -10 10 -7 17 10
11 25 -10 25 -12 0 -20 -7 -20 -17z"/>
<path d="M1640 1178 c0 -9 9 -23 20 -31 11 -8 17 -17 13 -20 -3 -4 -2 -7 4 -7
17 0 55 47 44 55 -7 3 -10 1 -9 -5 5 -22 -36 -20 -54 3 -15 18 -18 19 -18 5z"/>
<path d="M2359 1176 c-2 -2 -74 -7 -159 -10 -141 -6 -157 -8 -172 -27 -10 -12
-18 -32 -18 -44 0 -23 22 -54 41 -56 5 -1 14 -3 19 -4 6 -1 14 -3 19 -4 5 0
12 -14 16 -30 9 -44 41 -52 198 -48 164 3 171 7 171 94 0 46 -5 66 -25 95 -18
26 -29 34 -39 28 -8 -5 -21 -5 -31 0 -9 5 -18 8 -20 6z m-29 -36 c0 -5 -7 -10
-15 -10 -11 0 -13 -8 -8 -31 5 -25 3 -31 -8 -27 -8 2 -15 17 -17 31 -2 15 -9
27 -16 27 -8 0 -11 -10 -8 -30 5 -35 -13 -41 -22 -7 -10 37 -7 45 17 50 43 8
77 7 77 -3z m54 -22 c16 -39 9 -59 -11 -33 -13 18 -13 18 -28 -1 -12 -17 -14
-17 -15 -2 0 25 18 68 30 68 5 0 16 -15 24 -32z m46 7 c0 -16 6 -25 15 -25 8
0 15 -6 15 -14 0 -9 -8 -12 -24 -9 -19 4 -25 13 -28 39 -3 23 0 34 9 34 7 0
13 -11 13 -25z m-346 9 c9 -4 16 -18 16 -34 0 -28 -15 -40 -51 -40 -16 0 -19
7 -19 40 0 41 13 50 54 34z m56 -29 c0 -19 -4 -35 -10 -35 -5 0 -10 16 -10 35
0 19 5 35 10 35 6 0 10 -16 10 -35z m58 19 c-26 -14 -30 -44 -6 -44 6 0 8 7 4
15 -3 9 0 15 9 15 8 0 15 -9 15 -20 0 -24 -41 -28 -60 -5 -21 25 -3 55 33 55
l32 -1 -27 -15z m73 -74 c40 -22 13 -89 -30 -75 -30 9 -39 54 -16 72 22 16 21
16 46 3z m73 4 c31 -12 38 -42 16 -64 -30 -30 -47 -25 -53 17 -9 50 0 61 37
47z m101 -4 c3 -6 -4 -10 -17 -11 l-23 0 23 -11 c13 -6 21 -19 20 -27 -4 -18
-58 -29 -58 -12 0 6 10 11 23 11 20 1 20 2 -6 16 -23 12 -26 18 -16 30 13 16
45 19 54 4z m-260 -10 c-3 -5 -13 -10 -21 -10 -8 0 -14 -9 -14 -20 0 -11 7
-20 15 -20 9 0 12 6 9 15 -4 9 0 15 10 15 18 0 22 -35 5 -45 -34 -22 -84 30
-59 60 14 17 65 21 55 5z"/>
<path d="M2057 1100 c3 -11 9 -20 14 -20 5 0 9 9 9 20 0 11 -6 20 -14 20 -9 0
-12 -7 -9 -20z"/>
<path d="M2236 1031 c-9 -14 5 -42 18 -38 15 5 14 39 -1 44 -6 2 -14 0 -17 -6z"/>
<path d="M2324 1024 c3 -9 6 -21 6 -27 0 -8 3 -8 11 0 13 13 5 43 -12 43 -6 0
-8 -7 -5 -16z"/>
<path d="M1273 935 c0 -38 2 -53 4 -32 2 20 2 52 0 70 -2 17 -4 1 -4 -38z"/>
<path d="M1933 935 c0 -38 2 -53 4 -32 2 20 2 52 0 70 -2 17 -4 1 -4 -38z"/>
<path d="M1293 860 c0 -41 2 -58 4 -37 2 20 2 54 0 75 -2 20 -4 3 -4 -38z"/>
<path d="M1348 838 c0 -34 -1 -69 -1 -76 1 -10 -5 -9 -23 3 -13 8 -24 12 -24
7 0 -4 14 -16 31 -26 29 -17 30 -21 28 -77 -1 -32 1 -62 4 -66 4 -3 8 55 9
130 0 76 1 142 2 149 1 6 -5 13 -11 16 -10 3 -13 -14 -15 -60z"/>
<path d="M1693 845 c0 -33 2 -45 4 -27 2 18 2 45 0 60 -2 15 -4 0 -4 -33z"/>
<path d="M2743 1413 c9 -2 14 -9 11 -15 -4 -7 -2 -8 4 -4 20 12 13 26 -10 25
-18 -1 -19 -2 -5 -6z"/>
</g>
</svg>
